<svg xmlns="http://www.w3.org/2000/svg" viewBox="0 0 501.32 112.99"><defs><style>.cls-1{fill:#292929;}</style></defs><title>Ресурс 4</title><g id="Шар_2" data-name="Шар 2"><g id="Шар_1-2" data-name="Шар 1"><path class="cls-1" d="M0,9.86V0H40.59V9.86L27.94,12v39H82.73V12L70.08,9.86V0h40.58V9.86L98,12v89l12.65,2.17V113H70.08v-9.78L82.73,101V63.09H27.94v38l12.65,2.17V113H0v-9.78L12.65,101V12Z"/><path class="cls-1" d="M122,9.86V0h40.59V9.86L149.93,12v89l12.65,2.17V113H122v-9.78L134.64,101V12Z"/><path class="cls-1" d="M173.44,103.21,186.09,101V12L173.44,9.86V0H214V9.86L201.38,12V50H213.1l31.58-39-8.45-1.08V0h35.85V9.86L261.45,11.8,226.91,54.63l37.72,46.64,10.63,1.94V113H238.17v-9.78l8.61-1.08L214.58,62h-13.2v39L214,103.21V113H173.44Z"/><path class="cls-1" d="M286.13,103.21,298.77,101V12L286.13,9.86V0h40.58V9.86L314.06,12V50h11.72l31.59-39-8.46-1.08V0h35.85V9.86L374.13,11.8,339.59,54.63l37.72,46.64,10.63,1.94V113H350.85v-9.78l8.61-1.08L327.26,62h-13.2v39l12.65,2.17V113H286.13Z"/><polygon class="cls-1" points="416.21 101.04 416.19 101.04 420.74 89.95 423.19 83.96 423.2 83.97 449.64 19.56 450.1 19.56 481.14 101.04 431 101.04 426.12 112.99 501.32 112.99 456.62 0 443.51 0 395.7 112.99 411.32 112.99 416.21 101.04"/></g></g></svg>