<?xml version="1.0" encoding="utf-8"?>
<!-- Generator: Adobe Illustrator 20.1.0, SVG Export Plug-In . SVG Version: 6.00 Build 0)  -->
<svg version="1.1" id="Шар_1" xmlns="http://www.w3.org/2000/svg" xmlns:xlink="http://www.w3.org/1999/xlink" x="0px" y="0px"
	 viewBox="0 0 501.3 113" style="enable-background:new 0 0 501.3 113;" xml:space="preserve">
<style type="text/css">
	.st0{fill:#FFFFFF;}
</style>
<title>Ресурс 4</title>
<g id="Шар_2">
	<g id="Шар_1-2">
		<path class="st0" d="M0,9.9V0h40.6v9.9L27.9,12v39h54.8V12L70.1,9.9V0h40.6v9.9L98,12v89l12.7,2.2v9.8H70.1v-9.8l12.7-2.2V63.1
			H27.9v38l12.6,2.2v9.7H0v-9.8l12.6-2.2V12L0,9.9z"/>
		<path class="st0" d="M122,9.9V0h40.6v9.9L149.9,12v89l12.6,2.2v9.8H122v-9.8l12.6-2.2V12L122,9.9z"/>
		<path class="st0" d="M173.4,103.2l12.6-2.2V12l-12.6-2.1V0H214v9.9L201.4,12v38h11.7l31.6-39l-8.4-1.1V0h35.9v9.9l-10.6,1.9
			l-34.5,42.8l37.7,46.6l10.6,1.9v9.8h-37.1v-9.8l8.6-1.1L214.6,62h-13.2v39l12.6,2.2v9.8h-40.6V103.2z"/>
		<path class="st0" d="M286.1,103.2l12.6-2.2V12l-12.6-2.1V0h40.6v9.9L314.1,12v38h11.7l31.6-39l-8.5-1.1V0h35.9v9.9l-10.6,1.9
			l-34.5,42.8l37.7,46.6l10.6,1.9v9.8h-37.1v-9.8l8.6-1.1L327.3,62h-13.2v39l12.6,2.2v9.8h-40.6V103.2z"/>
		<polygon class="st0" points="416.2,101 416.2,101 420.7,89.9 423.2,84 423.2,84 449.6,19.6 450.1,19.6 481.1,101 431,101 
			426.1,113 501.3,113 456.6,0 443.5,0 395.7,113 411.3,113 		"/>
	</g>
</g>
</svg>
